<svg width="36" height="32" viewBox="0 0 36 32" fill="none" xmlns="http://www.w3.org/2000/svg">
<g id="Frame" clip-path="url(#clip0_38_70505)">
<path id="Vector" d="M0 1.76604C0 0.790685 0.80944 0 1.7632 0H33.7924C34.7662 0 35.5556 0.791022 35.5556 1.76604V30.234C35.5556 31.2092 34.7461 32 33.7924 32H1.7632C0.789422 32 0 31.2091 0 30.234V1.76604ZM17.7778 21.3333C14.8322 21.3333 12.4444 18.9456 12.4444 16C12.4444 13.0544 14.8322 10.6667 17.7778 10.6667C20.7234 10.6667 23.1111 13.0544 23.1111 16C23.1111 18.9456 20.7234 21.3333 17.7778 21.3333ZM17.7778 24.8889C22.6869 24.8889 26.6667 20.9092 26.6667 16C26.6667 11.0908 22.6869 7.11111 17.7778 7.11111C12.8686 7.11111 8.88889 11.0908 8.88889 16C8.88889 20.9092 12.8686 24.8889 17.7778 24.8889ZM28.4444 3.55556V7.11111H32V3.55556H28.4444Z" fill="white"/>
</g>
<defs>
<clipPath id="clip0_38_70505">
<rect width="35.5556" height="32" fill="white"/>
</clipPath>
</defs>
</svg>
